ISO-10303-21;
HEADER;
/* Generated by software containing ST-Developer
 * from STEP Tools, Inc. (www.steptools.com) 
 */

FILE_DESCRIPTION(
/* description */ (''),
/* implementation_level */ '2;1');

FILE_NAME(
/* name */ 'Top_cover.step',
/* time_stamp */ '2026-05-20T20:37:46+05:30',
/* author */ (''),
/* organization */ (''),
/* preprocessor_version */ 'ST-DEVELOPER v20.1',
/* originating_system */ 'Autodesk Translation Framework v15.8.0.0',
/* authorisation */ '');

FILE_SCHEMA (('AUTOMOTIVE_DESIGN { 1 0 10303 214 3 1 1 }'));
ENDSEC;

DATA;
#10=MECHANICAL_DESIGN_GEOMETRIC_PRESENTATION_REPRESENTATION('',(#13),#974);
#11=SHAPE_REPRESENTATION_RELATIONSHIP('SRR','None',#981,#12);
#12=ADVANCED_BREP_SHAPE_REPRESENTATION('',(#14),#973);
#13=STYLED_ITEM('',(#990),#14);
#14=MANIFOLD_SOLID_BREP('Body1',#546);
#15=FACE_BOUND('',#88,.T.);
#16=FACE_BOUND('',#91,.T.);
#17=FACE_BOUND('',#92,.T.);
#18=FACE_BOUND('',#93,.T.);
#19=FACE_BOUND('',#94,.T.);
#20=FACE_BOUND('',#99,.T.);
#21=FACE_BOUND('',#106,.T.);
#22=FACE_BOUND('',#112,.T.);
#23=FACE_BOUND('',#124,.T.);
#24=FACE_BOUND('',#125,.T.);
#25=FACE_BOUND('',#126,.T.);
#26=FACE_BOUND('',#127,.T.);
#27=PLANE('',#566);
#28=PLANE('',#570);
#29=PLANE('',#590);
#30=PLANE('',#593);
#31=PLANE('',#606);
#32=PLANE('',#614);
#33=PLANE('',#617);
#34=PLANE('',#619);
#35=PLANE('',#621);
#36=PLANE('',#631);
#37=PLANE('',#632);
#38=CYLINDRICAL_SURFACE('',#563,3.75);
#39=CYLINDRICAL_SURFACE('',#567,5.5);
#40=CYLINDRICAL_SURFACE('',#583,37.);
#41=CYLINDRICAL_SURFACE('',#588,3.75);
#42=CYLINDRICAL_SURFACE('',#591,5.5);
#43=CYLINDRICAL_SURFACE('',#600,37.);
#44=CYLINDRICAL_SURFACE('',#604,3.75);
#45=CYLINDRICAL_SURFACE('',#607,5.5);
#46=CYLINDRICAL_SURFACE('',#608,37.);
#47=CYLINDRICAL_SURFACE('',#612,3.75);
#48=CYLINDRICAL_SURFACE('',#615,5.5);
#49=CYLINDRICAL_SURFACE('',#616,37.);
#50=CYLINDRICAL_SURFACE('',#623,3.83799999999999);
#51=CYLINDRICAL_SURFACE('',#624,40.);
#52=CYLINDRICAL_SURFACE('',#628,37.);
#53=CYLINDRICAL_SURFACE('',#629,38.5);
#54=FACE_OUTER_BOUND('',#85,.T.);
#55=FACE_OUTER_BOUND('',#86,.T.);
#56=FACE_OUTER_BOUND('',#87,.T.);
#57=FACE_OUTER_BOUND('',#89,.T.);
#58=FACE_OUTER_BOUND('',#90,.T.);
#59=FACE_OUTER_BOUND('',#95,.T.);
#60=FACE_OUTER_BOUND('',#96,.T.);
#61=FACE_OUTER_BOUND('',#97,.T.);
#62=FACE_OUTER_BOUND('',#98,.T.);
#63=FACE_OUTER_BOUND('',#100,.T.);
#64=FACE_OUTER_BOUND('',#101,.T.);
#65=FACE_OUTER_BOUND('',#102,.T.);
#66=FACE_OUTER_BOUND('',#103,.T.);
#67=FACE_OUTER_BOUND('',#104,.T.);
#68=FACE_OUTER_BOUND('',#105,.T.);
#69=FACE_OUTER_BOUND('',#107,.T.);
#70=FACE_OUTER_BOUND('',#108,.T.);
#71=FACE_OUTER_BOUND('',#109,.T.);
#72=FACE_OUTER_BOUND('',#110,.T.);
#73=FACE_OUTER_BOUND('',#111,.T.);
#74=FACE_OUTER_BOUND('',#113,.T.);
#75=FACE_OUTER_BOUND('',#114,.T.);
#76=FACE_OUTER_BOUND('',#115,.T.);
#77=FACE_OUTER_BOUND('',#116,.T.);
#78=FACE_OUTER_BOUND('',#117,.T.);
#79=FACE_OUTER_BOUND('',#118,.T.);
#80=FACE_OUTER_BOUND('',#119,.T.);
#81=FACE_OUTER_BOUND('',#120,.T.);
#82=FACE_OUTER_BOUND('',#121,.T.);
#83=FACE_OUTER_BOUND('',#122,.T.);
#84=FACE_OUTER_BOUND('',#123,.T.);
#85=EDGE_LOOP('',(#361,#362,#363,#364));
#86=EDGE_LOOP('',(#365,#366,#367,#368));
#87=EDGE_LOOP('',(#369));
#88=EDGE_LOOP('',(#370));
#89=EDGE_LOOP('',(#371,#372,#373,#374));
#90=EDGE_LOOP('',(#375,#376,#377,#378,#379,#380,#381,#382,#383,#384,#385,
#386));
#91=EDGE_LOOP('',(#387));
#92=EDGE_LOOP('',(#388));
#93=EDGE_LOOP('',(#389));
#94=EDGE_LOOP('',(#390));
#95=EDGE_LOOP('',(#391,#392,#393,#394));
#96=EDGE_LOOP('',(#395,#396,#397,#398));
#97=EDGE_LOOP('',(#399,#400,#401,#402));
#98=EDGE_LOOP('',(#403));
#99=EDGE_LOOP('',(#404));
#100=EDGE_LOOP('',(#405,#406,#407,#408));
#101=EDGE_LOOP('',(#409,#410,#411,#412,#413,#414,#415,#416,#417,#418,#419,
#420));
#102=EDGE_LOOP('',(#421,#422,#423,#424));
#103=EDGE_LOOP('',(#425,#426,#427,#428));
#104=EDGE_LOOP('',(#429,#430,#431,#432));
#105=EDGE_LOOP('',(#433));
#106=EDGE_LOOP('',(#434));
#107=EDGE_LOOP('',(#435,#436,#437,#438));
#108=EDGE_LOOP('',(#439,#440,#441,#442));
#109=EDGE_LOOP('',(#443,#444,#445,#446));
#110=EDGE_LOOP('',(#447,#448,#449,#450));
#111=EDGE_LOOP('',(#451));
#112=EDGE_LOOP('',(#452));
#113=EDGE_LOOP('',(#453,#454,#455,#456));
#114=EDGE_LOOP('',(#457,#458,#459,#460));
#115=EDGE_LOOP('',(#461,#462,#463,#464));
#116=EDGE_LOOP('',(#465,#466,#467,#468,#469,#470,#471,#472));
#117=EDGE_LOOP('',(#473,#474,#475,#476,#477,#478,#479,#480));
#118=EDGE_LOOP('',(#481,#482,#483,#484));
#119=EDGE_LOOP('',(#485,#486,#487,#488,#489,#490,#491,#492));
#120=EDGE_LOOP('',(#493,#494,#495,#496));
#121=EDGE_LOOP('',(#497,#498,#499,#500));
#122=EDGE_LOOP('',(#501,#502,#503,#504,#505));
#123=EDGE_LOOP('',(#506));
#124=EDGE_LOOP('',(#507));
#125=EDGE_LOOP('',(#508));
#126=EDGE_LOOP('',(#509));
#127=EDGE_LOOP('',(#510));
#128=LINE('',#819,#161);
#129=LINE('',#825,#162);
#130=LINE('',#831,#163);
#131=LINE('',#835,#164);
#132=LINE('',#845,#165);
#133=LINE('',#849,#166);
#134=LINE('',#868,#167);
#135=LINE('',#873,#168);
#136=LINE('',#877,#169);
#137=LINE('',#882,#170);
#138=LINE('',#896,#171);
#139=LINE('',#898,#172);
#140=LINE('',#900,#173);
#141=LINE('',#903,#174);
#142=LINE('',#908,#175);
#143=LINE('',#912,#176);
#144=LINE('',#916,#177);
#145=LINE('',#917,#178);
#146=LINE('',#919,#179);
#147=LINE('',#924,#180);
#148=LINE('',#928,#181);
#149=LINE('',#933,#182);
#150=LINE('',#939,#183);
#151=LINE('',#941,#184);
#152=LINE('',#942,#185);
#153=LINE('',#945,#186);
#154=LINE('',#947,#187);
#155=LINE('',#949,#188);
#156=LINE('',#950,#189);
#157=LINE('',#953,#190);
#158=LINE('',#955,#191);
#159=LINE('',#956,#192);
#160=LINE('',#963,#193);
#161=VECTOR('',#639,3.);
#162=VECTOR('',#646,3.75);
#163=VECTOR('',#653,10.);
#164=VECTOR('',#656,10.);
#165=VECTOR('',#667,10.);
#166=VECTOR('',#670,10.);
#167=VECTOR('',#691,10.);
#168=VECTOR('',#696,3.);
#169=VECTOR('',#701,3.75);
#170=VECTOR('',#708,10.);
#171=VECTOR('',#723,10.);
#172=VECTOR('',#724,10.);
#173=VECTOR('',#725,10.);
#174=VECTOR('',#730,10.);
#175=VECTOR('',#735,3.);
#176=VECTOR('',#740,3.75);
#177=VECTOR('',#747,10.);
#178=VECTOR('',#748,10.);
#179=VECTOR('',#751,10.);
#180=VECTOR('',#756,3.);
#181=VECTOR('',#761,3.75);
#182=VECTOR('',#770,10.);
#183=VECTOR('',#775,10.);
#184=VECTOR('',#776,10.);
#185=VECTOR('',#777,10.);
#186=VECTOR('',#780,10.);
#187=VECTOR('',#783,10.);
#188=VECTOR('',#784,10.);
#189=VECTOR('',#785,10.);
#190=VECTOR('',#788,10.);
#191=VECTOR('',#789,10.);
#192=VECTOR('',#790,10.);
#193=VECTOR('',#799,40.);
#194=CIRCLE('',#561,3.);
#195=CIRCLE('',#562,1.6);
#196=CIRCLE('',#564,3.75);
#197=CIRCLE('',#565,3.75);
#198=CIRCLE('',#568,5.5);
#199=CIRCLE('',#569,5.5);
#200=CIRCLE('',#571,37.);
#201=CIRCLE('',#572,5.5);
#202=CIRCLE('',#573,37.);
#203=CIRCLE('',#574,38.5);
#204=CIRCLE('',#575,37.);
#205=CIRCLE('',#576,5.5);
#206=CIRCLE('',#577,37.);
#207=CIRCLE('',#578,5.5);
#208=CIRCLE('',#579,37.);
#209=CIRCLE('',#580,3.75);
#210=CIRCLE('',#581,3.75);
#211=CIRCLE('',#582,3.75);
#212=CIRCLE('',#584,37.);
#213=CIRCLE('',#586,3.);
#214=CIRCLE('',#587,1.6);
#215=CIRCLE('',#589,3.75);
#216=CIRCLE('',#592,5.5);
#217=CIRCLE('',#594,37.);
#218=CIRCLE('',#595,5.5);
#219=CIRCLE('',#596,37.);
#220=CIRCLE('',#597,5.5);
#221=CIRCLE('',#598,37.);
#222=CIRCLE('',#599,37.);
#223=CIRCLE('',#602,3.);
#224=CIRCLE('',#603,1.6);
#225=CIRCLE('',#605,3.75);
#226=CIRCLE('',#610,3.);
#227=CIRCLE('',#611,1.6);
#228=CIRCLE('',#613,3.75);
#229=CIRCLE('',#618,40.);
#230=CIRCLE('',#620,3.83799999999999);
#231=CIRCLE('',#622,3.83799999999999);
#232=CIRCLE('',#625,40.);
#233=CIRCLE('',#626,40.);
#234=CIRCLE('',#627,40.);
#235=CIRCLE('',#630,38.5);
#236=VERTEX_POINT('',#816);
#237=VERTEX_POINT('',#818);
#238=VERTEX_POINT('',#822);
#239=VERTEX_POINT('',#824);
#240=VERTEX_POINT('',#829);
#241=VERTEX_POINT('',#830);
#242=VERTEX_POINT('',#832);
#243=VERTEX_POINT('',#834);
#244=VERTEX_POINT('',#838);
#245=VERTEX_POINT('',#840);
#246=VERTEX_POINT('',#842);
#247=VERTEX_POINT('',#844);
#248=VERTEX_POINT('',#846);
#249=VERTEX_POINT('',#848);
#250=VERTEX_POINT('',#850);
#251=VERTEX_POINT('',#852);
#252=VERTEX_POINT('',#854);
#253=VERTEX_POINT('',#856);
#254=VERTEX_POINT('',#859);
#255=VERTEX_POINT('',#861);
#256=VERTEX_POINT('',#863);
#257=VERTEX_POINT('',#866);
#258=VERTEX_POINT('',#870);
#259=VERTEX_POINT('',#872);
#260=VERTEX_POINT('',#876);
#261=VERTEX_POINT('',#881);
#262=VERTEX_POINT('',#885);
#263=VERTEX_POINT('',#887);
#264=VERTEX_POINT('',#889);
#265=VERTEX_POINT('',#891);
#266=VERTEX_POINT('',#893);
#267=VERTEX_POINT('',#895);
#268=VERTEX_POINT('',#897);
#269=VERTEX_POINT('',#899);
#270=VERTEX_POINT('',#905);
#271=VERTEX_POINT('',#907);
#272=VERTEX_POINT('',#911);
#273=VERTEX_POINT('',#921);
#274=VERTEX_POINT('',#923);
#275=VERTEX_POINT('',#927);
#276=VERTEX_POINT('',#935);
#277=VERTEX_POINT('',#936);
#278=VERTEX_POINT('',#938);
#279=VERTEX_POINT('',#940);
#280=VERTEX_POINT('',#944);
#281=VERTEX_POINT('',#948);
#282=VERTEX_POINT('',#952);
#283=VERTEX_POINT('',#954);
#284=VERTEX_POINT('',#960);
#285=VERTEX_POINT('',#962);
#286=EDGE_CURVE('',#236,#236,#194,.T.);
#287=EDGE_CURVE('',#236,#237,#128,.T.);
#288=EDGE_CURVE('',#237,#237,#195,.T.);
#289=EDGE_CURVE('',#238,#238,#196,.T.);
#290=EDGE_CURVE('',#238,#239,#129,.T.);
#291=EDGE_CURVE('',#239,#239,#197,.T.);
#292=EDGE_CURVE('',#240,#241,#130,.T.);
#293=EDGE_CURVE('',#242,#240,#198,.T.);
#294=EDGE_CURVE('',#243,#242,#131,.T.);
#295=EDGE_CURVE('',#241,#243,#199,.T.);
#296=EDGE_CURVE('',#243,#244,#200,.T.);
#297=EDGE_CURVE('',#244,#245,#201,.T.);
#298=EDGE_CURVE('',#245,#246,#202,.T.);
#299=EDGE_CURVE('',#246,#247,#132,.T.);
#300=EDGE_CURVE('',#247,#248,#203,.T.);
#301=EDGE_CURVE('',#248,#249,#133,.T.);
#302=EDGE_CURVE('',#249,#250,#204,.T.);
#303=EDGE_CURVE('',#250,#251,#205,.T.);
#304=EDGE_CURVE('',#251,#252,#206,.T.);
#305=EDGE_CURVE('',#252,#253,#207,.T.);
#306=EDGE_CURVE('',#253,#241,#208,.T.);
#307=EDGE_CURVE('',#254,#254,#209,.T.);
#308=EDGE_CURVE('',#255,#255,#210,.T.);
#309=EDGE_CURVE('',#256,#256,#211,.T.);
#310=EDGE_CURVE('',#242,#257,#212,.T.);
#311=EDGE_CURVE('',#257,#244,#134,.T.);
#312=EDGE_CURVE('',#258,#258,#213,.T.);
#313=EDGE_CURVE('',#258,#259,#135,.T.);
#314=EDGE_CURVE('',#259,#259,#214,.T.);
#315=EDGE_CURVE('',#256,#260,#136,.T.);
#316=EDGE_CURVE('',#260,#260,#215,.T.);
#317=EDGE_CURVE('',#245,#261,#137,.T.);
#318=EDGE_CURVE('',#261,#257,#216,.T.);
#319=EDGE_CURVE('',#262,#240,#217,.T.);
#320=EDGE_CURVE('',#262,#263,#218,.T.);
#321=EDGE_CURVE('',#264,#263,#219,.T.);
#322=EDGE_CURVE('',#264,#265,#220,.T.);
#323=EDGE_CURVE('',#266,#265,#221,.T.);
#324=EDGE_CURVE('',#266,#267,#138,.T.);
#325=EDGE_CURVE('',#267,#268,#139,.T.);
#326=EDGE_CURVE('',#268,#269,#140,.T.);
#327=EDGE_CURVE('',#261,#269,#222,.T.);
#328=EDGE_CURVE('',#253,#262,#141,.T.);
#329=EDGE_CURVE('',#270,#270,#223,.T.);
#330=EDGE_CURVE('',#270,#271,#142,.T.);
#331=EDGE_CURVE('',#271,#271,#224,.T.);
#332=EDGE_CURVE('',#255,#272,#143,.T.);
#333=EDGE_CURVE('',#272,#272,#225,.T.);
#334=EDGE_CURVE('',#265,#250,#144,.T.);
#335=EDGE_CURVE('',#251,#264,#145,.T.);
#336=EDGE_CURVE('',#263,#252,#146,.T.);
#337=EDGE_CURVE('',#273,#273,#226,.T.);
#338=EDGE_CURVE('',#273,#274,#147,.T.);
#339=EDGE_CURVE('',#274,#274,#227,.T.);
#340=EDGE_CURVE('',#254,#275,#148,.T.);
#341=EDGE_CURVE('',#275,#275,#228,.T.);
#342=EDGE_CURVE('',#269,#246,#149,.T.);
#343=EDGE_CURVE('',#276,#277,#229,.T.);
#344=EDGE_CURVE('',#276,#278,#150,.T.);
#345=EDGE_CURVE('',#278,#279,#151,.T.);
#346=EDGE_CURVE('',#279,#277,#152,.T.);
#347=EDGE_CURVE('',#277,#280,#153,.T.);
#348=EDGE_CURVE('',#267,#279,#230,.T.);
#349=EDGE_CURVE('',#249,#266,#154,.T.);
#350=EDGE_CURVE('',#281,#248,#155,.T.);
#351=EDGE_CURVE('',#280,#281,#156,.T.);
#352=EDGE_CURVE('',#282,#276,#157,.T.);
#353=EDGE_CURVE('',#283,#282,#158,.T.);
#354=EDGE_CURVE('',#247,#283,#159,.T.);
#355=EDGE_CURVE('',#278,#268,#231,.T.);
#356=EDGE_CURVE('',#284,#280,#232,.T.);
#357=EDGE_CURVE('',#284,#285,#160,.T.);
#358=EDGE_CURVE('',#285,#285,#233,.T.);
#359=EDGE_CURVE('',#282,#284,#234,.T.);
#360=EDGE_CURVE('',#281,#283,#235,.T.);
#361=ORIENTED_EDGE('',*,*,#286,.F.);
#362=ORIENTED_EDGE('',*,*,#287,.T.);
#363=ORIENTED_EDGE('',*,*,#288,.F.);
#364=ORIENTED_EDGE('',*,*,#287,.F.);
#365=ORIENTED_EDGE('',*,*,#289,.F.);
#366=ORIENTED_EDGE('',*,*,#290,.T.);
#367=ORIENTED_EDGE('',*,*,#291,.T.);
#368=ORIENTED_EDGE('',*,*,#290,.F.);
#369=ORIENTED_EDGE('',*,*,#291,.F.);
#370=ORIENTED_EDGE('',*,*,#288,.T.);
#371=ORIENTED_EDGE('',*,*,#292,.F.);
#372=ORIENTED_EDGE('',*,*,#293,.F.);
#373=ORIENTED_EDGE('',*,*,#294,.F.);
#374=ORIENTED_EDGE('',*,*,#295,.F.);
#375=ORIENTED_EDGE('',*,*,#296,.T.);
#376=ORIENTED_EDGE('',*,*,#297,.T.);
#377=ORIENTED_EDGE('',*,*,#298,.T.);
#378=ORIENTED_EDGE('',*,*,#299,.T.);
#379=ORIENTED_EDGE('',*,*,#300,.T.);
#380=ORIENTED_EDGE('',*,*,#301,.T.);
#381=ORIENTED_EDGE('',*,*,#302,.T.);
#382=ORIENTED_EDGE('',*,*,#303,.T.);
#383=ORIENTED_EDGE('',*,*,#304,.T.);
#384=ORIENTED_EDGE('',*,*,#305,.T.);
#385=ORIENTED_EDGE('',*,*,#306,.T.);
#386=ORIENTED_EDGE('',*,*,#295,.T.);
#387=ORIENTED_EDGE('',*,*,#289,.T.);
#388=ORIENTED_EDGE('',*,*,#307,.T.);
#389=ORIENTED_EDGE('',*,*,#308,.T.);
#390=ORIENTED_EDGE('',*,*,#309,.T.);
#391=ORIENTED_EDGE('',*,*,#294,.T.);
#392=ORIENTED_EDGE('',*,*,#310,.T.);
#393=ORIENTED_EDGE('',*,*,#311,.T.);
#394=ORIENTED_EDGE('',*,*,#296,.F.);
#395=ORIENTED_EDGE('',*,*,#312,.F.);
#396=ORIENTED_EDGE('',*,*,#313,.T.);
#397=ORIENTED_EDGE('',*,*,#314,.F.);
#398=ORIENTED_EDGE('',*,*,#313,.F.);
#399=ORIENTED_EDGE('',*,*,#309,.F.);
#400=ORIENTED_EDGE('',*,*,#315,.T.);
#401=ORIENTED_EDGE('',*,*,#316,.T.);
#402=ORIENTED_EDGE('',*,*,#315,.F.);
#403=ORIENTED_EDGE('',*,*,#316,.F.);
#404=ORIENTED_EDGE('',*,*,#314,.T.);
#405=ORIENTED_EDGE('',*,*,#317,.F.);
#406=ORIENTED_EDGE('',*,*,#297,.F.);
#407=ORIENTED_EDGE('',*,*,#311,.F.);
#408=ORIENTED_EDGE('',*,*,#318,.F.);
#409=ORIENTED_EDGE('',*,*,#293,.T.);
#410=ORIENTED_EDGE('',*,*,#319,.F.);
#411=ORIENTED_EDGE('',*,*,#320,.T.);
#412=ORIENTED_EDGE('',*,*,#321,.F.);
#413=ORIENTED_EDGE('',*,*,#322,.T.);
#414=ORIENTED_EDGE('',*,*,#323,.F.);
#415=ORIENTED_EDGE('',*,*,#324,.T.);
#416=ORIENTED_EDGE('',*,*,#325,.T.);
#417=ORIENTED_EDGE('',*,*,#326,.T.);
#418=ORIENTED_EDGE('',*,*,#327,.F.);
#419=ORIENTED_EDGE('',*,*,#318,.T.);
#420=ORIENTED_EDGE('',*,*,#310,.F.);
#421=ORIENTED_EDGE('',*,*,#292,.T.);
#422=ORIENTED_EDGE('',*,*,#306,.F.);
#423=ORIENTED_EDGE('',*,*,#328,.T.);
#424=ORIENTED_EDGE('',*,*,#319,.T.);
#425=ORIENTED_EDGE('',*,*,#329,.F.);
#426=ORIENTED_EDGE('',*,*,#330,.T.);
#427=ORIENTED_EDGE('',*,*,#331,.F.);
#428=ORIENTED_EDGE('',*,*,#330,.F.);
#429=ORIENTED_EDGE('',*,*,#308,.F.);
#430=ORIENTED_EDGE('',*,*,#332,.T.);
#431=ORIENTED_EDGE('',*,*,#333,.T.);
#432=ORIENTED_EDGE('',*,*,#332,.F.);
#433=ORIENTED_EDGE('',*,*,#333,.F.);
#434=ORIENTED_EDGE('',*,*,#331,.T.);
#435=ORIENTED_EDGE('',*,*,#334,.F.);
#436=ORIENTED_EDGE('',*,*,#322,.F.);
#437=ORIENTED_EDGE('',*,*,#335,.F.);
#438=ORIENTED_EDGE('',*,*,#303,.F.);
#439=ORIENTED_EDGE('',*,*,#335,.T.);
#440=ORIENTED_EDGE('',*,*,#321,.T.);
#441=ORIENTED_EDGE('',*,*,#336,.T.);
#442=ORIENTED_EDGE('',*,*,#304,.F.);
#443=ORIENTED_EDGE('',*,*,#337,.F.);
#444=ORIENTED_EDGE('',*,*,#338,.T.);
#445=ORIENTED_EDGE('',*,*,#339,.F.);
#446=ORIENTED_EDGE('',*,*,#338,.F.);
#447=ORIENTED_EDGE('',*,*,#307,.F.);
#448=ORIENTED_EDGE('',*,*,#340,.T.);
#449=ORIENTED_EDGE('',*,*,#341,.T.);
#450=ORIENTED_EDGE('',*,*,#340,.F.);
#451=ORIENTED_EDGE('',*,*,#341,.F.);
#452=ORIENTED_EDGE('',*,*,#339,.T.);
#453=ORIENTED_EDGE('',*,*,#336,.F.);
#454=ORIENTED_EDGE('',*,*,#320,.F.);
#455=ORIENTED_EDGE('',*,*,#328,.F.);
#456=ORIENTED_EDGE('',*,*,#305,.F.);
#457=ORIENTED_EDGE('',*,*,#317,.T.);
#458=ORIENTED_EDGE('',*,*,#327,.T.);
#459=ORIENTED_EDGE('',*,*,#342,.T.);
#460=ORIENTED_EDGE('',*,*,#298,.F.);
#461=ORIENTED_EDGE('',*,*,#343,.F.);
#462=ORIENTED_EDGE('',*,*,#344,.T.);
#463=ORIENTED_EDGE('',*,*,#345,.T.);
#464=ORIENTED_EDGE('',*,*,#346,.T.);
#465=ORIENTED_EDGE('',*,*,#347,.F.);
#466=ORIENTED_EDGE('',*,*,#346,.F.);
#467=ORIENTED_EDGE('',*,*,#348,.F.);
#468=ORIENTED_EDGE('',*,*,#324,.F.);
#469=ORIENTED_EDGE('',*,*,#349,.F.);
#470=ORIENTED_EDGE('',*,*,#301,.F.);
#471=ORIENTED_EDGE('',*,*,#350,.F.);
#472=ORIENTED_EDGE('',*,*,#351,.F.);
#473=ORIENTED_EDGE('',*,*,#352,.F.);
#474=ORIENTED_EDGE('',*,*,#353,.F.);
#475=ORIENTED_EDGE('',*,*,#354,.F.);
#476=ORIENTED_EDGE('',*,*,#299,.F.);
#477=ORIENTED_EDGE('',*,*,#342,.F.);
#478=ORIENTED_EDGE('',*,*,#326,.F.);
#479=ORIENTED_EDGE('',*,*,#355,.F.);
#480=ORIENTED_EDGE('',*,*,#344,.F.);
#481=ORIENTED_EDGE('',*,*,#345,.F.);
#482=ORIENTED_EDGE('',*,*,#355,.T.);
#483=ORIENTED_EDGE('',*,*,#325,.F.);
#484=ORIENTED_EDGE('',*,*,#348,.T.);
#485=ORIENTED_EDGE('',*,*,#352,.T.);
#486=ORIENTED_EDGE('',*,*,#343,.T.);
#487=ORIENTED_EDGE('',*,*,#347,.T.);
#488=ORIENTED_EDGE('',*,*,#356,.F.);
#489=ORIENTED_EDGE('',*,*,#357,.T.);
#490=ORIENTED_EDGE('',*,*,#358,.T.);
#491=ORIENTED_EDGE('',*,*,#357,.F.);
#492=ORIENTED_EDGE('',*,*,#359,.F.);
#493=ORIENTED_EDGE('',*,*,#334,.T.);
#494=ORIENTED_EDGE('',*,*,#302,.F.);
#495=ORIENTED_EDGE('',*,*,#349,.T.);
#496=ORIENTED_EDGE('',*,*,#323,.T.);
#497=ORIENTED_EDGE('',*,*,#354,.T.);
#498=ORIENTED_EDGE('',*,*,#360,.F.);
#499=ORIENTED_EDGE('',*,*,#350,.T.);
#500=ORIENTED_EDGE('',*,*,#300,.F.);
#501=ORIENTED_EDGE('',*,*,#353,.T.);
#502=ORIENTED_EDGE('',*,*,#359,.T.);
#503=ORIENTED_EDGE('',*,*,#356,.T.);
#504=ORIENTED_EDGE('',*,*,#351,.T.);
#505=ORIENTED_EDGE('',*,*,#360,.T.);
#506=ORIENTED_EDGE('',*,*,#358,.F.);
#507=ORIENTED_EDGE('',*,*,#286,.T.);
#508=ORIENTED_EDGE('',*,*,#312,.T.);
#509=ORIENTED_EDGE('',*,*,#329,.T.);
#510=ORIENTED_EDGE('',*,*,#337,.T.);
#511=CONICAL_SURFACE('',#560,3.,0.610725964389209);
#512=CONICAL_SURFACE('',#585,3.,0.610725964389209);
#513=CONICAL_SURFACE('',#601,3.,0.610725964389209);
#514=CONICAL_SURFACE('',#609,3.,0.610725964389209);
#515=ADVANCED_FACE('',(#54),#511,.F.);
#516=ADVANCED_FACE('',(#55),#38,.F.);
#517=ADVANCED_FACE('',(#56,#15),#27,.T.);
#518=ADVANCED_FACE('',(#57),#39,.T.);
#519=ADVANCED_FACE('',(#58,#16,#17,#18,#19),#28,.T.);
#520=ADVANCED_FACE('',(#59),#40,.F.);
#521=ADVANCED_FACE('',(#60),#512,.F.);
#522=ADVANCED_FACE('',(#61),#41,.F.);
#523=ADVANCED_FACE('',(#62,#20),#29,.T.);
#524=ADVANCED_FACE('',(#63),#42,.T.);
#525=ADVANCED_FACE('',(#64),#30,.T.);
#526=ADVANCED_FACE('',(#65),#43,.F.);
#527=ADVANCED_FACE('',(#66),#513,.F.);
#528=ADVANCED_FACE('',(#67),#44,.F.);
#529=ADVANCED_FACE('',(#68,#21),#31,.T.);
#530=ADVANCED_FACE('',(#69),#45,.T.);
#531=ADVANCED_FACE('',(#70),#46,.F.);
#532=ADVANCED_FACE('',(#71),#514,.F.);
#533=ADVANCED_FACE('',(#72),#47,.F.);
#534=ADVANCED_FACE('',(#73,#22),#32,.T.);
#535=ADVANCED_FACE('',(#74),#48,.T.);
#536=ADVANCED_FACE('',(#75),#49,.F.);
#537=ADVANCED_FACE('',(#76),#33,.F.);
#538=ADVANCED_FACE('',(#77),#34,.F.);
#539=ADVANCED_FACE('',(#78),#35,.T.);
#540=ADVANCED_FACE('',(#79),#50,.F.);
#541=ADVANCED_FACE('',(#80),#51,.T.);
#542=ADVANCED_FACE('',(#81),#52,.F.);
#543=ADVANCED_FACE('',(#82),#53,.T.);
#544=ADVANCED_FACE('',(#83),#36,.T.);
#545=ADVANCED_FACE('',(#84,#23,#24,#25,#26),#37,.F.);
#546=CLOSED_SHELL('',(#515,#516,#517,#518,#519,#520,#521,#522,#523,#524,
#525,#526,#527,#528,#529,#530,#531,#532,#533,#534,#535,#536,#537,#538,#539,
#540,#541,#542,#543,#544,#545));
#547=DERIVED_UNIT_ELEMENT(#549,1.);
#548=DERIVED_UNIT_ELEMENT(#976,-3.);
#549=(
MASS_UNIT()
NAMED_UNIT(*)
SI_UNIT(.KILO.,.GRAM.)
);
#550=DERIVED_UNIT((#547,#548));
#551=MEASURE_REPRESENTATION_ITEM('density measure',
POSITIVE_RATIO_MEASURE(7850.),#550);
#552=PROPERTY_DEFINITION_REPRESENTATION(#557,#554);
#553=PROPERTY_DEFINITION_REPRESENTATION(#558,#555);
#554=REPRESENTATION('material name',(#556),#973);
#555=REPRESENTATION('density',(#551),#973);
#556=DESCRIPTIVE_REPRESENTATION_ITEM('Steel','Steel');
#557=PROPERTY_DEFINITION('material property','material name',#983);
#558=PROPERTY_DEFINITION('material property','density of part',#983);
#559=AXIS2_PLACEMENT_3D('',#814,#633,#634);
#560=AXIS2_PLACEMENT_3D('',#815,#635,#636);
#561=AXIS2_PLACEMENT_3D('',#817,#637,#638);
#562=AXIS2_PLACEMENT_3D('',#820,#640,#641);
#563=AXIS2_PLACEMENT_3D('',#821,#642,#643);
#564=AXIS2_PLACEMENT_3D('',#823,#644,#645);
#565=AXIS2_PLACEMENT_3D('',#826,#647,#648);
#566=AXIS2_PLACEMENT_3D('',#827,#649,#650);
#567=AXIS2_PLACEMENT_3D('',#828,#651,#652);
#568=AXIS2_PLACEMENT_3D('',#833,#654,#655);
#569=AXIS2_PLACEMENT_3D('',#836,#657,#658);
#570=AXIS2_PLACEMENT_3D('',#837,#659,#660);
#571=AXIS2_PLACEMENT_3D('',#839,#661,#662);
#572=AXIS2_PLACEMENT_3D('',#841,#663,#664);
#573=AXIS2_PLACEMENT_3D('',#843,#665,#666);
#574=AXIS2_PLACEMENT_3D('',#847,#668,#669);
#575=AXIS2_PLACEMENT_3D('',#851,#671,#672);
#576=AXIS2_PLACEMENT_3D('',#853,#673,#674);
#577=AXIS2_PLACEMENT_3D('',#855,#675,#676);
#578=AXIS2_PLACEMENT_3D('',#857,#677,#678);
#579=AXIS2_PLACEMENT_3D('',#858,#679,#680);
#580=AXIS2_PLACEMENT_3D('',#860,#681,#682);
#581=AXIS2_PLACEMENT_3D('',#862,#683,#684);
#582=AXIS2_PLACEMENT_3D('',#864,#685,#686);
#583=AXIS2_PLACEMENT_3D('',#865,#687,#688);
#584=AXIS2_PLACEMENT_3D('',#867,#689,#690);
#585=AXIS2_PLACEMENT_3D('',#869,#692,#693);
#586=AXIS2_PLACEMENT_3D('',#871,#694,#695);
#587=AXIS2_PLACEMENT_3D('',#874,#697,#698);
#588=AXIS2_PLACEMENT_3D('',#875,#699,#700);
#589=AXIS2_PLACEMENT_3D('',#878,#702,#703);
#590=AXIS2_PLACEMENT_3D('',#879,#704,#705);
#591=AXIS2_PLACEMENT_3D('',#880,#706,#707);
#592=AXIS2_PLACEMENT_3D('',#883,#709,#710);
#593=AXIS2_PLACEMENT_3D('',#884,#711,#712);
#594=AXIS2_PLACEMENT_3D('',#886,#713,#714);
#595=AXIS2_PLACEMENT_3D('',#888,#715,#716);
#596=AXIS2_PLACEMENT_3D('',#890,#717,#718);
#597=AXIS2_PLACEMENT_3D('',#892,#719,#720);
#598=AXIS2_PLACEMENT_3D('',#894,#721,#722);
#599=AXIS2_PLACEMENT_3D('',#901,#726,#727);
#600=AXIS2_PLACEMENT_3D('',#902,#728,#729);
#601=AXIS2_PLACEMENT_3D('',#904,#731,#732);
#602=AXIS2_PLACEMENT_3D('',#906,#733,#734);
#603=AXIS2_PLACEMENT_3D('',#909,#736,#737);
#604=AXIS2_PLACEMENT_3D('',#910,#738,#739);
#605=AXIS2_PLACEMENT_3D('',#913,#741,#742);
#606=AXIS2_PLACEMENT_3D('',#914,#743,#744);
#607=AXIS2_PLACEMENT_3D('',#915,#745,#746);
#608=AXIS2_PLACEMENT_3D('',#918,#749,#750);
#609=AXIS2_PLACEMENT_3D('',#920,#752,#753);
#610=AXIS2_PLACEMENT_3D('',#922,#754,#755);
#611=AXIS2_PLACEMENT_3D('',#925,#757,#758);
#612=AXIS2_PLACEMENT_3D('',#926,#759,#760);
#613=AXIS2_PLACEMENT_3D('',#929,#762,#763);
#614=AXIS2_PLACEMENT_3D('',#930,#764,#765);
#615=AXIS2_PLACEMENT_3D('',#931,#766,#767);
#616=AXIS2_PLACEMENT_3D('',#932,#768,#769);
#617=AXIS2_PLACEMENT_3D('',#934,#771,#772);
#618=AXIS2_PLACEMENT_3D('',#937,#773,#774);
#619=AXIS2_PLACEMENT_3D('',#943,#778,#779);
#620=AXIS2_PLACEMENT_3D('',#946,#781,#782);
#621=AXIS2_PLACEMENT_3D('',#951,#786,#787);
#622=AXIS2_PLACEMENT_3D('',#957,#791,#792);
#623=AXIS2_PLACEMENT_3D('',#958,#793,#794);
#624=AXIS2_PLACEMENT_3D('',#959,#795,#796);
#625=AXIS2_PLACEMENT_3D('',#961,#797,#798);
#626=AXIS2_PLACEMENT_3D('',#964,#800,#801);
#627=AXIS2_PLACEMENT_3D('',#965,#802,#803);
#628=AXIS2_PLACEMENT_3D('',#966,#804,#805);
#629=AXIS2_PLACEMENT_3D('',#967,#806,#807);
#630=AXIS2_PLACEMENT_3D('',#968,#808,#809);
#631=AXIS2_PLACEMENT_3D('',#969,#810,#811);
#632=AXIS2_PLACEMENT_3D('',#970,#812,#813);
#633=DIRECTION('axis',(0.,0.,1.));
#634=DIRECTION('refdir',(1.,0.,0.));
#635=DIRECTION('center_axis',(0.,0.,-1.));
#636=DIRECTION('ref_axis',(-1.83697019872103E-16,-1.,0.));
#637=DIRECTION('center_axis',(0.,0.,1.));
#638=DIRECTION('ref_axis',(-1.83697019872103E-16,-1.,0.));
#639=DIRECTION('',(-3.51144412228044E-17,-0.573462344363328,0.819231920519041));
#640=DIRECTION('center_axis',(0.,0.,-1.));
#641=DIRECTION('ref_axis',(-1.83697019872103E-16,-1.,0.));
#642=DIRECTION('center_axis',(0.,0.,-1.));
#643=DIRECTION('ref_axis',(1.83697019872103E-16,1.,0.));
#644=DIRECTION('center_axis',(0.,0.,-1.));
#645=DIRECTION('ref_axis',(1.83697019872103E-16,1.,0.));
#646=DIRECTION('',(0.,0.,-1.));
#647=DIRECTION('center_axis',(0.,0.,-1.));
#648=DIRECTION('ref_axis',(1.83697019872103E-16,1.,0.));
#649=DIRECTION('center_axis',(0.,0.,1.));
#650=DIRECTION('ref_axis',(1.83697019872103E-16,1.,0.));
#651=DIRECTION('center_axis',(0.,0.,-1.));
#652=DIRECTION('ref_axis',(-1.,2.44929359829471E-16,0.));
#653=DIRECTION('',(0.,0.,1.));
#654=DIRECTION('center_axis',(0.,0.,-1.));
#655=DIRECTION('ref_axis',(1.83697019872103E-16,1.,0.));
#656=DIRECTION('',(0.,0.,-1.));
#657=DIRECTION('center_axis',(0.,0.,1.));
#658=DIRECTION('ref_axis',(1.83697019872103E-16,1.,0.));
#659=DIRECTION('center_axis',(0.,0.,1.));
#660=DIRECTION('ref_axis',(1.,0.,0.));
#661=DIRECTION('center_axis',(0.,0.,-1.));
#662=DIRECTION('ref_axis',(-1.,0.,0.));
#663=DIRECTION('center_axis',(0.,0.,1.));
#664=DIRECTION('ref_axis',(1.,-1.22464679914735E-16,0.));
#665=DIRECTION('center_axis',(0.,0.,-1.));
#666=DIRECTION('ref_axis',(-1.,0.,0.));
#667=DIRECTION('',(-0.707106781186547,-0.707106781186548,0.));
#668=DIRECTION('center_axis',(0.,0.,1.));
#669=DIRECTION('ref_axis',(1.,0.,0.));
#670=DIRECTION('',(0.707106781186547,0.707106781186548,0.));
#671=DIRECTION('center_axis',(0.,0.,-1.));
#672=DIRECTION('ref_axis',(-1.,0.,0.));
#673=DIRECTION('center_axis',(0.,0.,1.));
#674=DIRECTION('ref_axis',(-6.12323399573677E-17,-1.,0.));
#675=DIRECTION('center_axis',(0.,0.,-1.));
#676=DIRECTION('ref_axis',(-1.,0.,0.));
#677=DIRECTION('center_axis',(0.,0.,1.));
#678=DIRECTION('ref_axis',(-1.,0.,0.));
#679=DIRECTION('center_axis',(0.,0.,-1.));
#680=DIRECTION('ref_axis',(-1.,0.,0.));
#681=DIRECTION('center_axis',(0.,0.,-1.));
#682=DIRECTION('ref_axis',(-1.,0.,0.));
#683=DIRECTION('center_axis',(0.,0.,-1.));
#684=DIRECTION('ref_axis',(-6.12323399573676E-17,-1.,0.));
#685=DIRECTION('center_axis',(0.,0.,-1.));
#686=DIRECTION('ref_axis',(1.,-1.22464679914735E-16,0.));
#687=DIRECTION('center_axis',(0.,0.,-1.));
#688=DIRECTION('ref_axis',(-1.,0.,0.));
#689=DIRECTION('center_axis',(0.,0.,-1.));
#690=DIRECTION('ref_axis',(-1.,0.,0.));
#691=DIRECTION('',(0.,0.,1.));
#692=DIRECTION('center_axis',(0.,0.,-1.));
#693=DIRECTION('ref_axis',(-1.,1.22464679914735E-16,0.));
#694=DIRECTION('center_axis',(0.,0.,1.));
#695=DIRECTION('ref_axis',(-1.,1.22464679914735E-16,0.));
#696=DIRECTION('',(-0.573462344363328,0.,0.819231920519041));
#697=DIRECTION('center_axis',(0.,0.,-1.));
#698=DIRECTION('ref_axis',(-1.,1.22464679914735E-16,0.));
#699=DIRECTION('center_axis',(0.,0.,-1.));
#700=DIRECTION('ref_axis',(1.,-1.22464679914735E-16,0.));
#701=DIRECTION('',(0.,0.,-1.));
#702=DIRECTION('center_axis',(0.,0.,-1.));
#703=DIRECTION('ref_axis',(1.,-1.22464679914735E-16,0.));
#704=DIRECTION('center_axis',(0.,0.,1.));
#705=DIRECTION('ref_axis',(1.,-1.22464679914735E-16,0.));
#706=DIRECTION('center_axis',(0.,0.,-1.));
#707=DIRECTION('ref_axis',(-6.12323399573676E-17,1.,0.));
#708=DIRECTION('',(0.,0.,-1.));
#709=DIRECTION('center_axis',(0.,0.,-1.));
#710=DIRECTION('ref_axis',(1.,-1.22464679914735E-16,0.));
#711=DIRECTION('center_axis',(0.,0.,1.));
#712=DIRECTION('ref_axis',(-1.,0.,0.));
#713=DIRECTION('center_axis',(0.,0.,-1.));
#714=DIRECTION('ref_axis',(-1.,0.,0.));
#715=DIRECTION('center_axis',(0.,0.,-1.));
#716=DIRECTION('ref_axis',(-1.,0.,0.));
#717=DIRECTION('center_axis',(0.,0.,-1.));
#718=DIRECTION('ref_axis',(-1.,0.,0.));
#719=DIRECTION('center_axis',(0.,0.,-1.));
#720=DIRECTION('ref_axis',(-6.12323399573677E-17,-1.,0.));
#721=DIRECTION('center_axis',(0.,0.,-1.));
#722=DIRECTION('ref_axis',(-1.,0.,0.));
#723=DIRECTION('',(0.707106781186547,0.707106781186548,0.));
#724=DIRECTION('',(0.707106781186548,-0.707106781186548,0.));
#725=DIRECTION('',(-0.707106781186547,-0.707106781186548,0.));
#726=DIRECTION('center_axis',(0.,0.,-1.));
#727=DIRECTION('ref_axis',(-1.,0.,0.));
#728=DIRECTION('center_axis',(0.,0.,-1.));
#729=DIRECTION('ref_axis',(-1.,0.,0.));
#730=DIRECTION('',(0.,0.,-1.));
#731=DIRECTION('center_axis',(0.,0.,-1.));
#732=DIRECTION('ref_axis',(6.12323399573677E-17,1.,0.));
#733=DIRECTION('center_axis',(0.,0.,1.));
#734=DIRECTION('ref_axis',(6.12323399573677E-17,1.,0.));
#735=DIRECTION('',(-3.51144412228044E-17,0.573462344363328,0.819231920519041));
#736=DIRECTION('center_axis',(0.,0.,-1.));
#737=DIRECTION('ref_axis',(6.12323399573677E-17,1.,0.));
#738=DIRECTION('center_axis',(0.,0.,-1.));
#739=DIRECTION('ref_axis',(-6.12323399573676E-17,-1.,0.));
#740=DIRECTION('',(0.,0.,-1.));
#741=DIRECTION('center_axis',(0.,0.,-1.));
#742=DIRECTION('ref_axis',(-6.12323399573676E-17,-1.,0.));
#743=DIRECTION('center_axis',(0.,0.,1.));
#744=DIRECTION('ref_axis',(-6.12323399573677E-17,-1.,0.));
#745=DIRECTION('center_axis',(0.,0.,-1.));
#746=DIRECTION('ref_axis',(1.,-1.22464679914735E-16,0.));
#747=DIRECTION('',(0.,0.,1.));
#748=DIRECTION('',(0.,0.,-1.));
#749=DIRECTION('center_axis',(0.,0.,-1.));
#750=DIRECTION('ref_axis',(-1.,0.,0.));
#751=DIRECTION('',(0.,0.,1.));
#752=DIRECTION('center_axis',(0.,0.,-1.));
#753=DIRECTION('ref_axis',(1.,0.,0.));
#754=DIRECTION('center_axis',(0.,0.,1.));
#755=DIRECTION('ref_axis',(1.,0.,0.));
#756=DIRECTION('',(0.573462344363328,7.02288824456087E-17,0.819231920519041));
#757=DIRECTION('center_axis',(0.,0.,-1.));
#758=DIRECTION('ref_axis',(1.,0.,0.));
#759=DIRECTION('center_axis',(0.,0.,-1.));
#760=DIRECTION('ref_axis',(-1.,0.,0.));
#761=DIRECTION('',(0.,0.,-1.));
#762=DIRECTION('center_axis',(0.,0.,-1.));
#763=DIRECTION('ref_axis',(-1.,0.,0.));
#764=DIRECTION('center_axis',(0.,0.,1.));
#765=DIRECTION('ref_axis',(-1.,0.,0.));
#766=DIRECTION('center_axis',(0.,0.,-1.));
#767=DIRECTION('ref_axis',(-6.12323399573677E-17,-1.,0.));
#768=DIRECTION('center_axis',(0.,0.,-1.));
#769=DIRECTION('ref_axis',(-1.,0.,0.));
#770=DIRECTION('',(0.,0.,1.));
#771=DIRECTION('center_axis',(0.,0.,-1.));
#772=DIRECTION('ref_axis',(-0.707106781186547,-0.707106781186548,0.));
#773=DIRECTION('center_axis',(0.,0.,-1.));
#774=DIRECTION('ref_axis',(1.,0.,0.));
#775=DIRECTION('',(0.707106781186547,0.707106781186548,0.));
#776=DIRECTION('',(-0.707106781186547,0.707106781186547,0.));
#777=DIRECTION('',(-0.707106781186547,-0.707106781186548,0.));
#778=DIRECTION('center_axis',(-0.707106781186548,0.707106781186547,0.));
#779=DIRECTION('ref_axis',(0.707106781186547,0.707106781186548,0.));
#780=DIRECTION('',(0.,0.,1.));
#781=DIRECTION('center_axis',(-0.707106781186548,0.707106781186547,0.));
#782=DIRECTION('ref_axis',(0.621333920450225,0.621333920450226,-0.477376495646681));
#783=DIRECTION('',(0.,0.,-1.));
#784=DIRECTION('',(0.,0.,1.));
#785=DIRECTION('',(0.707106781186547,0.707106781186548,0.));
#786=DIRECTION('center_axis',(-0.707106781186548,0.707106781186547,0.));
#787=DIRECTION('ref_axis',(0.707106781186547,0.707106781186548,0.));
#788=DIRECTION('',(0.,0.,-1.));
#789=DIRECTION('',(-0.707106781186547,-0.707106781186548,0.));
#790=DIRECTION('',(0.,0.,-1.));
#791=DIRECTION('center_axis',(0.707106781186548,-0.707106781186547,0.));
#792=DIRECTION('ref_axis',(0.621333920450225,0.621333920450226,-0.477376495646681));
#793=DIRECTION('center_axis',(-0.707106781186548,0.707106781186548,0.));
#794=DIRECTION('ref_axis',(0.621333920450225,0.621333920450225,-0.477376495646681));
#795=DIRECTION('center_axis',(0.,0.,1.));
#796=DIRECTION('ref_axis',(1.,0.,0.));
#797=DIRECTION('center_axis',(0.,0.,1.));
#798=DIRECTION('ref_axis',(1.,0.,0.));
#799=DIRECTION('',(0.,0.,-1.));
#800=DIRECTION('center_axis',(0.,0.,1.));
#801=DIRECTION('ref_axis',(1.,0.,0.));
#802=DIRECTION('center_axis',(0.,0.,1.));
#803=DIRECTION('ref_axis',(1.,0.,0.));
#804=DIRECTION('center_axis',(0.,0.,-1.));
#805=DIRECTION('ref_axis',(-1.,0.,0.));
#806=DIRECTION('center_axis',(0.,0.,1.));
#807=DIRECTION('ref_axis',(0.707106781186548,0.707106781186547,0.));
#808=DIRECTION('center_axis',(0.,0.,-1.));
#809=DIRECTION('ref_axis',(1.,0.,0.));
#810=DIRECTION('center_axis',(0.,0.,1.));
#811=DIRECTION('ref_axis',(1.,0.,0.));
#812=DIRECTION('center_axis',(0.,0.,1.));
#813=DIRECTION('ref_axis',(1.,0.,0.));
#814=CARTESIAN_POINT('',(0.,0.,0.));
#815=CARTESIAN_POINT('Origin',(32.,-5.87899301823903E-15,0.));
#816=CARTESIAN_POINT('',(32.,2.99999999999999,-7.34333686487433E-32));
#817=CARTESIAN_POINT('Origin',(32.,-5.87899301823903E-15,0.));
#818=CARTESIAN_POINT('',(32.,1.59999999999999,2.));
#819=CARTESIAN_POINT('',(32.,2.99999999999999,0.));
#820=CARTESIAN_POINT('Origin',(32.,-5.87899301823903E-15,2.));
#821=CARTESIAN_POINT('Origin',(32.,-5.87899301823903E-15,6.));
#822=CARTESIAN_POINT('',(32.,-3.75000000000001,6.));
#823=CARTESIAN_POINT('Origin',(32.,-5.87899301823903E-15,6.));
#824=CARTESIAN_POINT('',(32.,-3.75000000000001,2.));
#825=CARTESIAN_POINT('',(32.,-3.75000000000001,6.));
#826=CARTESIAN_POINT('Origin',(32.,-5.87899301823903E-15,2.));
#827=CARTESIAN_POINT('Origin',(32.,-5.8783046359073E-15,2.));
#828=CARTESIAN_POINT('Origin',(32.,-6.29532665247347E-15,6.));
#829=CARTESIAN_POINT('',(36.91796875,2.4624344405534,3.));
#830=CARTESIAN_POINT('',(36.91796875,2.46243444055338,6.));
#831=CARTESIAN_POINT('',(36.91796875,2.46243444055338,6.));
#832=CARTESIAN_POINT('',(36.91796875,-2.46243444055341,3.));
#833=CARTESIAN_POINT('Origin',(32.,-6.29532665247347E-15,3.));
#834=CARTESIAN_POINT('',(36.91796875,-2.46243444055339,6.));
#835=CARTESIAN_POINT('',(36.91796875,-2.46243444055339,6.));
#836=CARTESIAN_POINT('Origin',(32.,-6.29532665247347E-15,6.));
#837=CARTESIAN_POINT('Origin',(0.,0.,6.));
#838=CARTESIAN_POINT('',(2.4624344405534,-36.91796875,6.));
#839=CARTESIAN_POINT('Origin',(0.,0.,6.));
#840=CARTESIAN_POINT('',(-2.46243444055341,-36.91796875,6.));
#841=CARTESIAN_POINT('Origin',(-4.3358917738377E-15,-32.,6.));
#842=CARTESIAN_POINT('',(-23.955489277251,-28.1981299643702,6.));
#843=CARTESIAN_POINT('Origin',(0.,0.,6.));
#844=CARTESIAN_POINT('',(-25.0195160473845,-29.2621567345038,6.));
#845=CARTESIAN_POINT('',(-10.8514374407841,-15.0940781279033,6.));
#846=CARTESIAN_POINT('',(-29.2621567345038,-25.0195160473845,6.));
#847=CARTESIAN_POINT('Origin',(0.,0.,6.));
#848=CARTESIAN_POINT('',(-28.1981299643702,-23.955489277251,6.));
#849=CARTESIAN_POINT('',(-15.0940781279033,-10.8514374407841,6.));
#850=CARTESIAN_POINT('',(-36.91796875,-2.4624344405534,6.));
#851=CARTESIAN_POINT('Origin',(0.,0.,6.));
#852=CARTESIAN_POINT('',(-36.91796875,2.46243444055341,6.));
#853=CARTESIAN_POINT('Origin',(-32.,2.37645689520194E-15,6.));
#854=CARTESIAN_POINT('',(-2.46243444055338,36.91796875,6.));
#855=CARTESIAN_POINT('Origin',(0.,0.,6.));
#856=CARTESIAN_POINT('',(2.46243444055338,36.91796875,6.));
#857=CARTESIAN_POINT('Origin',(4.1702201656617E-16,32.,6.));
#858=CARTESIAN_POINT('Origin',(0.,0.,6.));
#859=CARTESIAN_POINT('',(3.75,32.,6.));
#860=CARTESIAN_POINT('Origin',(6.88382331736795E-19,32.,6.));
#861=CARTESIAN_POINT('',(-32.,3.75,6.));
#862=CARTESIAN_POINT('Origin',(-32.,1.9601232609675E-15,6.));
#863=CARTESIAN_POINT('',(-3.75,-32.,6.));
#864=CARTESIAN_POINT('Origin',(-3.91955813960327E-15,-32.,6.));
#865=CARTESIAN_POINT('Origin',(0.,0.,6.));
#866=CARTESIAN_POINT('',(2.46243444055338,-36.91796875,3.));
#867=CARTESIAN_POINT('Origin',(0.,0.,3.));
#868=CARTESIAN_POINT('',(2.46243444055338,-36.91796875,6.));
#869=CARTESIAN_POINT('Origin',(-3.91955813960327E-15,-32.,0.));
#870=CARTESIAN_POINT('',(3.,-32.,-8.25700929794784E-32));
#871=CARTESIAN_POINT('Origin',(-3.91955813960327E-15,-32.,0.));
#872=CARTESIAN_POINT('',(1.6,-32.,2.));
#873=CARTESIAN_POINT('',(3.,-32.,0.));
#874=CARTESIAN_POINT('Origin',(-3.91955813960327E-15,-32.,2.));
#875=CARTESIAN_POINT('Origin',(-3.91955813960327E-15,-32.,6.));
#876=CARTESIAN_POINT('',(-3.75,-32.,2.));
#877=CARTESIAN_POINT('',(-3.75,-32.,6.));
#878=CARTESIAN_POINT('Origin',(-3.91955813960327E-15,-32.,2.));
#879=CARTESIAN_POINT('Origin',(-3.91886975727153E-15,-32.,2.));
#880=CARTESIAN_POINT('Origin',(-4.3358917738377E-15,-32.,6.));
#881=CARTESIAN_POINT('',(-2.46243444055339,-36.91796875,3.));
#882=CARTESIAN_POINT('',(-2.46243444055339,-36.91796875,6.));
#883=CARTESIAN_POINT('Origin',(-4.3358917738377E-15,-32.,3.));
#884=CARTESIAN_POINT('Origin',(0.,0.,3.));
#885=CARTESIAN_POINT('',(2.4624344405534,36.91796875,3.));
#886=CARTESIAN_POINT('Origin',(0.,0.,3.));
#887=CARTESIAN_POINT('',(-2.4624344405534,36.91796875,3.));
#888=CARTESIAN_POINT('Origin',(4.1702201656617E-16,32.,3.));
#889=CARTESIAN_POINT('',(-36.91796875,2.46243444055341,3.));
#890=CARTESIAN_POINT('Origin',(0.,0.,3.));
#891=CARTESIAN_POINT('',(-36.91796875,-2.4624344405534,3.));
#892=CARTESIAN_POINT('Origin',(-32.,2.37645689520194E-15,3.));
#893=CARTESIAN_POINT('',(-28.1981299643702,-23.955489277251,3.));
#894=CARTESIAN_POINT('Origin',(0.,0.,3.));
#895=CARTESIAN_POINT('',(-25.7280802334725,-21.4854395463532,3.));
#896=CARTESIAN_POINT('',(-15.0940781279033,-10.8514374407841,3.));
#897=CARTESIAN_POINT('',(-21.4854395463532,-25.7280802334725,3.));
#898=CARTESIAN_POINT('',(-23.6067598899129,-23.6067598899129,3.));
#899=CARTESIAN_POINT('',(-23.955489277251,-28.1981299643702,3.));
#900=CARTESIAN_POINT('',(-10.8514374407841,-15.0940781279033,3.));
#901=CARTESIAN_POINT('Origin',(0.,0.,3.));
#902=CARTESIAN_POINT('Origin',(0.,0.,6.));
#903=CARTESIAN_POINT('',(2.46243444055338,36.91796875,6.));
#904=CARTESIAN_POINT('Origin',(-32.,1.9601232609675E-15,0.));
#905=CARTESIAN_POINT('',(-32.,-3.,-7.16175594582619E-33));
#906=CARTESIAN_POINT('Origin',(-32.,1.9601232609675E-15,0.));
#907=CARTESIAN_POINT('',(-32.,-1.6,2.));
#908=CARTESIAN_POINT('',(-32.,-3.,0.));
#909=CARTESIAN_POINT('Origin',(-32.,1.9601232609675E-15,2.));
#910=CARTESIAN_POINT('Origin',(-32.,1.9601232609675E-15,6.));
#911=CARTESIAN_POINT('',(-32.,3.75,2.));
#912=CARTESIAN_POINT('',(-32.,3.75,6.));
#913=CARTESIAN_POINT('Origin',(-32.,1.9601232609675E-15,2.));
#914=CARTESIAN_POINT('Origin',(-32.,1.95943487863577E-15,2.));
#915=CARTESIAN_POINT('Origin',(-32.,2.37645689520194E-15,6.));
#916=CARTESIAN_POINT('',(-36.91796875,-2.46243444055338,6.));
#917=CARTESIAN_POINT('',(-36.91796875,2.46243444055339,6.));
#918=CARTESIAN_POINT('Origin',(0.,0.,6.));
#919=CARTESIAN_POINT('',(-2.46243444055338,36.91796875,6.));
#920=CARTESIAN_POINT('Origin',(6.88382331736795E-19,32.,0.));
#921=CARTESIAN_POINT('',(-3.,32.,-5.18678756091728E-33));
#922=CARTESIAN_POINT('Origin',(6.88382331736795E-19,32.,0.));
#923=CARTESIAN_POINT('',(-1.6,32.,2.));
#924=CARTESIAN_POINT('',(-3.,32.,0.));
#925=CARTESIAN_POINT('Origin',(6.88382331736795E-19,32.,2.));
#926=CARTESIAN_POINT('Origin',(6.88382331736795E-19,32.,6.));
#927=CARTESIAN_POINT('',(3.75,32.,2.));
#928=CARTESIAN_POINT('',(3.75,32.,6.));
#929=CARTESIAN_POINT('Origin',(6.88382331736795E-19,32.,2.));
#930=CARTESIAN_POINT('Origin',(0.,32.,2.));
#931=CARTESIAN_POINT('Origin',(4.1702201656617E-16,32.,6.));
#932=CARTESIAN_POINT('Origin',(0.,0.,6.));
#933=CARTESIAN_POINT('',(-23.955489277251,-28.1981299643702,6.));
#934=CARTESIAN_POINT('Origin',(-25.8419244252436,-25.8419244252436,1.));
#935=CARTESIAN_POINT('',(-26.0832892087813,-30.3259298959006,1.));
#936=CARTESIAN_POINT('',(-30.3259298959006,-26.0832892087813,1.));
#937=CARTESIAN_POINT('Origin',(0.,0.,1.));
#938=CARTESIAN_POINT('',(-23.7206040816839,-27.9632447688032,1.00000000000001));
#939=CARTESIAN_POINT('',(-26.1629509039023,-30.4055915910215,1.));
#940=CARTESIAN_POINT('',(-27.9632447688032,-23.7206040816839,1.00000000000001));
#941=CARTESIAN_POINT('',(-25.8419244252436,-25.8419244252436,1.00000000000001));
#942=CARTESIAN_POINT('',(-30.4055915910215,-26.1629509039023,1.));
#943=CARTESIAN_POINT('Origin',(-28.066835912247,-23.8241952251278,3.5));
#944=CARTESIAN_POINT('',(-30.3259298959006,-26.0832892087813,3.));
#945=CARTESIAN_POINT('',(-30.3259298959006,-26.0832892087813,0.));
#946=CARTESIAN_POINT('Origin',(-28.1127598201605,-23.8701191330412,4.83217099029196));
#947=CARTESIAN_POINT('',(-28.1981299643702,-23.955489277251,6.));
#948=CARTESIAN_POINT('',(-29.2621567345038,-25.0195160473845,3.));
#949=CARTESIAN_POINT('',(-29.2621567345038,-25.0195160473845,3.));
#950=CARTESIAN_POINT('',(-15.0940781279033,-10.8514374407841,3.));
#951=CARTESIAN_POINT('Origin',(-23.8241952251278,-28.066835912247,3.5));
#952=CARTESIAN_POINT('',(-26.0832892087813,-30.3259298959006,3.));
#953=CARTESIAN_POINT('',(-26.0832892087813,-30.3259298959006,0.));
#954=CARTESIAN_POINT('',(-25.0195160473845,-29.2621567345038,3.));
#955=CARTESIAN_POINT('',(-10.8514374407841,-15.0940781279033,3.));
#956=CARTESIAN_POINT('',(-25.0195160473845,-29.2621567345038,3.));
#957=CARTESIAN_POINT('Origin',(-23.8701191330412,-28.1127598201605,4.83217099029196));
#958=CARTESIAN_POINT('Origin',(-25.9914394766008,-25.9914394766008,4.83217099029196));
#959=CARTESIAN_POINT('Origin',(0.,0.,0.));
#960=CARTESIAN_POINT('',(-40.,-4.89858719658941E-15,3.));
#961=CARTESIAN_POINT('Origin',(0.,0.,3.));
#962=CARTESIAN_POINT('',(-40.,-4.89858719658941E-15,0.));
#963=CARTESIAN_POINT('',(-40.,-4.89858719658941E-15,0.));
#964=CARTESIAN_POINT('Origin',(0.,0.,0.));
#965=CARTESIAN_POINT('Origin',(0.,0.,3.));
#966=CARTESIAN_POINT('Origin',(0.,0.,6.));
#967=CARTESIAN_POINT('Origin',(0.,0.,3.));
#968=CARTESIAN_POINT('Origin',(0.,0.,3.));
#969=CARTESIAN_POINT('Origin',(0.,0.,3.));
#970=CARTESIAN_POINT('Origin',(0.,0.,0.));
#971=UNCERTAINTY_MEASURE_WITH_UNIT(LENGTH_MEASURE(0.01),#975,
'DISTANCE_ACCURACY_VALUE',
'Maximum model space distance between geometric entities at asserted c
onnectivities');
#972=UNCERTAINTY_MEASURE_WITH_UNIT(LENGTH_MEASURE(0.01),#975,
'DISTANCE_ACCURACY_VALUE',
'Maximum model space distance between geometric entities at asserted c
onnectivities');
#973=(
GEOMETRIC_REPRESENTATION_CONTEXT(3)
GLOBAL_UNCERTAINTY_ASSIGNED_CONTEXT((#971))
GLOBAL_UNIT_ASSIGNED_CONTEXT((#975,#977,#978))
REPRESENTATION_CONTEXT('','3D')
);
#974=(
GEOMETRIC_REPRESENTATION_CONTEXT(3)
GLOBAL_UNCERTAINTY_ASSIGNED_CONTEXT((#972))
GLOBAL_UNIT_ASSIGNED_CONTEXT((#975,#977,#978))
REPRESENTATION_CONTEXT('','3D')
);
#975=(
LENGTH_UNIT()
NAMED_UNIT(*)
SI_UNIT(.MILLI.,.METRE.)
);
#976=(
LENGTH_UNIT()
NAMED_UNIT(*)
SI_UNIT($,.METRE.)
);
#977=(
NAMED_UNIT(*)
PLANE_ANGLE_UNIT()
SI_UNIT($,.RADIAN.)
);
#978=(
NAMED_UNIT(*)
SI_UNIT($,.STERADIAN.)
SOLID_ANGLE_UNIT()
);
#979=SHAPE_DEFINITION_REPRESENTATION(#980,#981);
#980=PRODUCT_DEFINITION_SHAPE('',$,#983);
#981=SHAPE_REPRESENTATION('',(#559),#973);
#982=PRODUCT_DEFINITION_CONTEXT('part definition',#987,'design');
#983=PRODUCT_DEFINITION('2026-05-20-15-10-24-517','Top_cover',#984,#982);
#984=PRODUCT_DEFINITION_FORMATION('',$,#989);
#985=PRODUCT_RELATED_PRODUCT_CATEGORY('Top_cover','Top_cover',(#989));
#986=APPLICATION_PROTOCOL_DEFINITION('international standard',
'automotive_design',2009,#987);
#987=APPLICATION_CONTEXT(
'Core Data for Automotive Mechanical Design Process');
#988=PRODUCT_CONTEXT('part definition',#987,'mechanical');
#989=PRODUCT('2026-05-20-15-10-24-517','Top_cover',$,(#988));
#990=PRESENTATION_STYLE_ASSIGNMENT((#991));
#991=SURFACE_STYLE_USAGE(.BOTH.,#992);
#992=SURFACE_SIDE_STYLE('',(#993));
#993=SURFACE_STYLE_FILL_AREA(#994);
#994=FILL_AREA_STYLE('Steel - Satin',(#995));
#995=FILL_AREA_STYLE_COLOUR('Steel - Satin',#996);
#996=COLOUR_RGB('Steel - Satin',0.627450980392157,0.627450980392157,0.627450980392157);
ENDSEC;
END-ISO-10303-21;
