ISO-10303-21;
HEADER;
/* Generated by software containing ST-Developer
 * from STEP Tools, Inc. (www.steptools.com) 
 */

FILE_DESCRIPTION(
/* description */ (''),
/* implementation_level */ '2;1');

FILE_NAME(
/* name */ 'twisted top.step',
/* time_stamp */ '2026-05-21T01:09:18+05:30',
/* author */ (''),
/* organization */ (''),
/* preprocessor_version */ 'ST-DEVELOPER v20.1',
/* originating_system */ 'Autodesk Translation Framework v15.8.0.0',
/* authorisation */ '');

FILE_SCHEMA (('AUTOMOTIVE_DESIGN { 1 0 10303 214 3 1 1 }'));
ENDSEC;

DATA;
#10=MECHANICAL_DESIGN_GEOMETRIC_PRESENTATION_REPRESENTATION('',(#13),#364);
#11=SHAPE_REPRESENTATION_RELATIONSHIP('SRR','None',#371,#12);
#12=ADVANCED_BREP_SHAPE_REPRESENTATION('',(#14),#363);
#13=STYLED_ITEM('',(#380),#14);
#14=MANIFOLD_SOLID_BREP('Body1',#213);
#15=CONICAL_SURFACE('',#234,16.5,0.785398163397448);
#16=FACE_BOUND('',#44,.T.);
#17=FACE_BOUND('',#54,.T.);
#18=PLANE('',#233);
#19=PLANE('',#236);
#20=PLANE('',#237);
#21=PLANE('',#238);
#22=PLANE('',#239);
#23=PLANE('',#240);
#24=PLANE('',#241);
#25=PLANE('',#242);
#26=PLANE('',#243);
#27=PLANE('',#244);
#28=FACE_OUTER_BOUND('',#41,.T.);
#29=FACE_OUTER_BOUND('',#42,.T.);
#30=FACE_OUTER_BOUND('',#43,.T.);
#31=FACE_OUTER_BOUND('',#45,.T.);
#32=FACE_OUTER_BOUND('',#46,.T.);
#33=FACE_OUTER_BOUND('',#47,.T.);
#34=FACE_OUTER_BOUND('',#48,.T.);
#35=FACE_OUTER_BOUND('',#49,.T.);
#36=FACE_OUTER_BOUND('',#50,.T.);
#37=FACE_OUTER_BOUND('',#51,.T.);
#38=FACE_OUTER_BOUND('',#52,.T.);
#39=FACE_OUTER_BOUND('',#53,.T.);
#40=FACE_OUTER_BOUND('',#55,.T.);
#41=EDGE_LOOP('',(#146,#147,#148,#149));
#42=EDGE_LOOP('',(#150,#151,#152,#153));
#43=EDGE_LOOP('',(#154));
#44=EDGE_LOOP('',(#155));
#45=EDGE_LOOP('',(#156,#157,#158,#159));
#46=EDGE_LOOP('',(#160));
#47=EDGE_LOOP('',(#161,#162,#163,#164));
#48=EDGE_LOOP('',(#165,#166,#167,#168));
#49=EDGE_LOOP('',(#169,#170,#171,#172));
#50=EDGE_LOOP('',(#173,#174,#175,#176));
#51=EDGE_LOOP('',(#177,#178,#179,#180));
#52=EDGE_LOOP('',(#181,#182,#183,#184));
#53=EDGE_LOOP('',(#185,#186,#187,#188,#189,#190));
#54=EDGE_LOOP('',(#191));
#55=EDGE_LOOP('',(#192,#193,#194,#195,#196,#197));
#56=LINE('',#309,#77);
#57=LINE('',#315,#78);
#58=LINE('',#320,#79);
#59=LINE('',#326,#80);
#60=LINE('',#328,#81);
#61=LINE('',#330,#82);
#62=LINE('',#331,#83);
#63=LINE('',#334,#84);
#64=LINE('',#336,#85);
#65=LINE('',#337,#86);
#66=LINE('',#340,#87);
#67=LINE('',#342,#88);
#68=LINE('',#343,#89);
#69=LINE('',#346,#90);
#70=LINE('',#348,#91);
#71=LINE('',#349,#92);
#72=LINE('',#352,#93);
#73=LINE('',#354,#94);
#74=LINE('',#355,#95);
#75=LINE('',#357,#96);
#76=LINE('',#358,#97);
#77=VECTOR('',#251,10.);
#78=VECTOR('',#258,12.5);
#79=VECTOR('',#265,16.5);
#80=VECTOR('',#272,10.);
#81=VECTOR('',#273,10.);
#82=VECTOR('',#274,10.);
#83=VECTOR('',#275,10.);
#84=VECTOR('',#278,10.);
#85=VECTOR('',#279,10.);
#86=VECTOR('',#280,10.);
#87=VECTOR('',#283,10.);
#88=VECTOR('',#284,10.);
#89=VECTOR('',#285,10.);
#90=VECTOR('',#288,10.);
#91=VECTOR('',#289,10.);
#92=VECTOR('',#290,10.);
#93=VECTOR('',#293,10.);
#94=VECTOR('',#294,10.);
#95=VECTOR('',#295,10.);
#96=VECTOR('',#298,10.);
#97=VECTOR('',#299,10.);
#98=CIRCLE('',#228,10.);
#99=CIRCLE('',#229,10.);
#100=CIRCLE('',#231,12.5);
#101=CIRCLE('',#232,12.5);
#102=CIRCLE('',#235,16.5);
#103=VERTEX_POINT('',#306);
#104=VERTEX_POINT('',#308);
#105=VERTEX_POINT('',#312);
#106=VERTEX_POINT('',#314);
#107=VERTEX_POINT('',#319);
#108=VERTEX_POINT('',#324);
#109=VERTEX_POINT('',#325);
#110=VERTEX_POINT('',#327);
#111=VERTEX_POINT('',#329);
#112=VERTEX_POINT('',#333);
#113=VERTEX_POINT('',#335);
#114=VERTEX_POINT('',#339);
#115=VERTEX_POINT('',#341);
#116=VERTEX_POINT('',#345);
#117=VERTEX_POINT('',#347);
#118=VERTEX_POINT('',#351);
#119=VERTEX_POINT('',#353);
#120=EDGE_CURVE('',#103,#103,#98,.T.);
#121=EDGE_CURVE('',#103,#104,#56,.T.);
#122=EDGE_CURVE('',#104,#104,#99,.T.);
#123=EDGE_CURVE('',#105,#105,#100,.T.);
#124=EDGE_CURVE('',#105,#106,#57,.T.);
#125=EDGE_CURVE('',#106,#106,#101,.T.);
#126=EDGE_CURVE('',#106,#107,#58,.T.);
#127=EDGE_CURVE('',#107,#107,#102,.T.);
#128=EDGE_CURVE('',#108,#109,#59,.T.);
#129=EDGE_CURVE('',#108,#110,#60,.T.);
#130=EDGE_CURVE('',#111,#110,#61,.T.);
#131=EDGE_CURVE('',#109,#111,#62,.T.);
#132=EDGE_CURVE('',#109,#112,#63,.T.);
#133=EDGE_CURVE('',#113,#111,#64,.T.);
#134=EDGE_CURVE('',#112,#113,#65,.T.);
#135=EDGE_CURVE('',#112,#114,#66,.T.);
#136=EDGE_CURVE('',#115,#113,#67,.T.);
#137=EDGE_CURVE('',#114,#115,#68,.T.);
#138=EDGE_CURVE('',#114,#116,#69,.T.);
#139=EDGE_CURVE('',#117,#115,#70,.T.);
#140=EDGE_CURVE('',#116,#117,#71,.T.);
#141=EDGE_CURVE('',#116,#118,#72,.T.);
#142=EDGE_CURVE('',#119,#117,#73,.T.);
#143=EDGE_CURVE('',#118,#119,#74,.T.);
#144=EDGE_CURVE('',#118,#108,#75,.T.);
#145=EDGE_CURVE('',#110,#119,#76,.T.);
#146=ORIENTED_EDGE('',*,*,#120,.F.);
#147=ORIENTED_EDGE('',*,*,#121,.T.);
#148=ORIENTED_EDGE('',*,*,#122,.F.);
#149=ORIENTED_EDGE('',*,*,#121,.F.);
#150=ORIENTED_EDGE('',*,*,#123,.F.);
#151=ORIENTED_EDGE('',*,*,#124,.T.);
#152=ORIENTED_EDGE('',*,*,#125,.F.);
#153=ORIENTED_EDGE('',*,*,#124,.F.);
#154=ORIENTED_EDGE('',*,*,#123,.T.);
#155=ORIENTED_EDGE('',*,*,#120,.T.);
#156=ORIENTED_EDGE('',*,*,#125,.T.);
#157=ORIENTED_EDGE('',*,*,#126,.T.);
#158=ORIENTED_EDGE('',*,*,#127,.F.);
#159=ORIENTED_EDGE('',*,*,#126,.F.);
#160=ORIENTED_EDGE('',*,*,#122,.T.);
#161=ORIENTED_EDGE('',*,*,#128,.F.);
#162=ORIENTED_EDGE('',*,*,#129,.T.);
#163=ORIENTED_EDGE('',*,*,#130,.F.);
#164=ORIENTED_EDGE('',*,*,#131,.F.);
#165=ORIENTED_EDGE('',*,*,#132,.F.);
#166=ORIENTED_EDGE('',*,*,#131,.T.);
#167=ORIENTED_EDGE('',*,*,#133,.F.);
#168=ORIENTED_EDGE('',*,*,#134,.F.);
#169=ORIENTED_EDGE('',*,*,#135,.F.);
#170=ORIENTED_EDGE('',*,*,#134,.T.);
#171=ORIENTED_EDGE('',*,*,#136,.F.);
#172=ORIENTED_EDGE('',*,*,#137,.F.);
#173=ORIENTED_EDGE('',*,*,#138,.F.);
#174=ORIENTED_EDGE('',*,*,#137,.T.);
#175=ORIENTED_EDGE('',*,*,#139,.F.);
#176=ORIENTED_EDGE('',*,*,#140,.F.);
#177=ORIENTED_EDGE('',*,*,#141,.F.);
#178=ORIENTED_EDGE('',*,*,#140,.T.);
#179=ORIENTED_EDGE('',*,*,#142,.F.);
#180=ORIENTED_EDGE('',*,*,#143,.F.);
#181=ORIENTED_EDGE('',*,*,#144,.F.);
#182=ORIENTED_EDGE('',*,*,#143,.T.);
#183=ORIENTED_EDGE('',*,*,#145,.F.);
#184=ORIENTED_EDGE('',*,*,#129,.F.);
#185=ORIENTED_EDGE('',*,*,#145,.T.);
#186=ORIENTED_EDGE('',*,*,#142,.T.);
#187=ORIENTED_EDGE('',*,*,#139,.T.);
#188=ORIENTED_EDGE('',*,*,#136,.T.);
#189=ORIENTED_EDGE('',*,*,#133,.T.);
#190=ORIENTED_EDGE('',*,*,#130,.T.);
#191=ORIENTED_EDGE('',*,*,#127,.T.);
#192=ORIENTED_EDGE('',*,*,#144,.T.);
#193=ORIENTED_EDGE('',*,*,#128,.T.);
#194=ORIENTED_EDGE('',*,*,#132,.T.);
#195=ORIENTED_EDGE('',*,*,#135,.T.);
#196=ORIENTED_EDGE('',*,*,#138,.T.);
#197=ORIENTED_EDGE('',*,*,#141,.T.);
#198=CYLINDRICAL_SURFACE('',#227,10.);
#199=CYLINDRICAL_SURFACE('',#230,12.5);
#200=ADVANCED_FACE('',(#28),#198,.F.);
#201=ADVANCED_FACE('',(#29),#199,.T.);
#202=ADVANCED_FACE('',(#30,#16),#18,.T.);
#203=ADVANCED_FACE('',(#31),#15,.T.);
#204=ADVANCED_FACE('',(#32),#19,.T.);
#205=ADVANCED_FACE('',(#33),#20,.T.);
#206=ADVANCED_FACE('',(#34),#21,.T.);
#207=ADVANCED_FACE('',(#35),#22,.T.);
#208=ADVANCED_FACE('',(#36),#23,.T.);
#209=ADVANCED_FACE('',(#37),#24,.T.);
#210=ADVANCED_FACE('',(#38),#25,.T.);
#211=ADVANCED_FACE('',(#39,#17),#26,.T.);
#212=ADVANCED_FACE('',(#40),#27,.F.);
#213=CLOSED_SHELL('',(#200,#201,#202,#203,#204,#205,#206,#207,#208,#209,
#210,#211,#212));
#214=DERIVED_UNIT_ELEMENT(#216,1.);
#215=DERIVED_UNIT_ELEMENT(#366,-3.);
#216=(
MASS_UNIT()
NAMED_UNIT(*)
SI_UNIT(.KILO.,.GRAM.)
);
#217=DERIVED_UNIT((#214,#215));
#218=MEASURE_REPRESENTATION_ITEM('density measure',
POSITIVE_RATIO_MEASURE(7850.),#217);
#219=PROPERTY_DEFINITION_REPRESENTATION(#224,#221);
#220=PROPERTY_DEFINITION_REPRESENTATION(#225,#222);
#221=REPRESENTATION('material name',(#223),#363);
#222=REPRESENTATION('density',(#218),#363);
#223=DESCRIPTIVE_REPRESENTATION_ITEM('Steel','Steel');
#224=PROPERTY_DEFINITION('material property','material name',#373);
#225=PROPERTY_DEFINITION('material property','density of part',#373);
#226=AXIS2_PLACEMENT_3D('',#304,#245,#246);
#227=AXIS2_PLACEMENT_3D('',#305,#247,#248);
#228=AXIS2_PLACEMENT_3D('',#307,#249,#250);
#229=AXIS2_PLACEMENT_3D('',#310,#252,#253);
#230=AXIS2_PLACEMENT_3D('',#311,#254,#255);
#231=AXIS2_PLACEMENT_3D('',#313,#256,#257);
#232=AXIS2_PLACEMENT_3D('',#316,#259,#260);
#233=AXIS2_PLACEMENT_3D('',#317,#261,#262);
#234=AXIS2_PLACEMENT_3D('',#318,#263,#264);
#235=AXIS2_PLACEMENT_3D('',#321,#266,#267);
#236=AXIS2_PLACEMENT_3D('',#322,#268,#269);
#237=AXIS2_PLACEMENT_3D('',#323,#270,#271);
#238=AXIS2_PLACEMENT_3D('',#332,#276,#277);
#239=AXIS2_PLACEMENT_3D('',#338,#281,#282);
#240=AXIS2_PLACEMENT_3D('',#344,#286,#287);
#241=AXIS2_PLACEMENT_3D('',#350,#291,#292);
#242=AXIS2_PLACEMENT_3D('',#356,#296,#297);
#243=AXIS2_PLACEMENT_3D('',#359,#300,#301);
#244=AXIS2_PLACEMENT_3D('',#360,#302,#303);
#245=DIRECTION('axis',(0.,0.,1.));
#246=DIRECTION('refdir',(1.,0.,0.));
#247=DIRECTION('center_axis',(0.,0.,1.));
#248=DIRECTION('ref_axis',(-1.,0.,0.));
#249=DIRECTION('center_axis',(0.,0.,-1.));
#250=DIRECTION('ref_axis',(-1.,0.,0.));
#251=DIRECTION('',(0.,0.,-1.));
#252=DIRECTION('center_axis',(0.,0.,1.));
#253=DIRECTION('ref_axis',(-1.,0.,0.));
#254=DIRECTION('center_axis',(0.,0.,1.));
#255=DIRECTION('ref_axis',(-1.,0.,0.));
#256=DIRECTION('center_axis',(0.,0.,1.));
#257=DIRECTION('ref_axis',(-1.,0.,0.));
#258=DIRECTION('',(0.,0.,-1.));
#259=DIRECTION('center_axis',(0.,0.,-1.));
#260=DIRECTION('ref_axis',(-1.,0.,0.));
#261=DIRECTION('center_axis',(0.,0.,1.));
#262=DIRECTION('ref_axis',(-1.,0.,0.));
#263=DIRECTION('center_axis',(0.,0.,-1.));
#264=DIRECTION('ref_axis',(-1.,0.,0.));
#265=DIRECTION('',(0.707106781186547,8.65956056235493E-17,-0.707106781186548));
#266=DIRECTION('center_axis',(0.,0.,-1.));
#267=DIRECTION('ref_axis',(-1.,0.,0.));
#268=DIRECTION('center_axis',(0.,0.,1.));
#269=DIRECTION('ref_axis',(-1.,0.,0.));
#270=DIRECTION('center_axis',(-0.950335433229869,0.311227512196139,0.));
#271=DIRECTION('ref_axis',(-0.311227512196139,-0.950335433229869,0.));
#272=DIRECTION('',(0.311227512196139,0.950335433229869,0.));
#273=DIRECTION('',(0.,0.,1.));
#274=DIRECTION('',(-0.311227512196139,-0.950335433229869,0.));
#275=DIRECTION('',(0.,0.,1.));
#276=DIRECTION('center_axis',(-0.206344406861745,0.978479425310964,0.));
#277=DIRECTION('ref_axis',(-0.978479425310964,-0.206344406861745,0.));
#278=DIRECTION('',(0.978479425310964,0.206344406861745,0.));
#279=DIRECTION('',(-0.978479425310964,-0.206344406861745,0.));
#280=DIRECTION('',(0.,0.,1.));
#281=DIRECTION('center_axis',(0.744690764500667,0.667409668245383,0.));
#282=DIRECTION('ref_axis',(-0.667409668245383,0.744690764500667,0.));
#283=DIRECTION('',(0.667409668245383,-0.744690764500667,0.));
#284=DIRECTION('',(-0.667409668245383,0.744690764500667,0.));
#285=DIRECTION('',(0.,0.,1.));
#286=DIRECTION('center_axis',(0.950335433229869,-0.311227512196138,0.));
#287=DIRECTION('ref_axis',(0.311227512196138,0.950335433229869,0.));
#288=DIRECTION('',(-0.311227512196138,-0.950335433229869,0.));
#289=DIRECTION('',(0.311227512196138,0.950335433229869,0.));
#290=DIRECTION('',(0.,0.,1.));
#291=DIRECTION('center_axis',(0.206344406861745,-0.978479425310964,0.));
#292=DIRECTION('ref_axis',(0.978479425310964,0.206344406861745,0.));
#293=DIRECTION('',(-0.978479425310964,-0.206344406861745,0.));
#294=DIRECTION('',(0.978479425310964,0.206344406861745,0.));
#295=DIRECTION('',(0.,0.,1.));
#296=DIRECTION('center_axis',(-0.744690764500667,-0.667409668245383,0.));
#297=DIRECTION('ref_axis',(0.667409668245383,-0.744690764500667,0.));
#298=DIRECTION('',(-0.667409668245383,0.744690764500667,0.));
#299=DIRECTION('',(0.667409668245383,-0.744690764500667,0.));
#300=DIRECTION('center_axis',(0.,0.,1.));
#301=DIRECTION('ref_axis',(1.,0.,0.));
#302=DIRECTION('center_axis',(0.,0.,1.));
#303=DIRECTION('ref_axis',(1.,0.,0.));
#304=CARTESIAN_POINT('',(0.,0.,0.));
#305=CARTESIAN_POINT('Origin',(0.,0.,6.5));
#306=CARTESIAN_POINT('',(10.,1.22464679914735E-15,15.));
#307=CARTESIAN_POINT('Origin',(0.,0.,15.));
#308=CARTESIAN_POINT('',(10.,1.22464679914735E-15,6.5));
#309=CARTESIAN_POINT('',(10.,1.22464679914735E-15,6.5));
#310=CARTESIAN_POINT('Origin',(0.,0.,6.5));
#311=CARTESIAN_POINT('Origin',(0.,0.,6.5));
#312=CARTESIAN_POINT('',(12.5,1.53080849893419E-15,15.));
#313=CARTESIAN_POINT('Origin',(0.,0.,15.));
#314=CARTESIAN_POINT('',(12.5,1.53080849893419E-15,6.5));
#315=CARTESIAN_POINT('',(12.5,1.53080849893419E-15,6.5));
#316=CARTESIAN_POINT('Origin',(0.,0.,6.5));
#317=CARTESIAN_POINT('Origin',(0.,0.,15.));
#318=CARTESIAN_POINT('Origin',(0.,0.,2.5));
#319=CARTESIAN_POINT('',(16.5,2.02066721859313E-15,2.5));
#320=CARTESIAN_POINT('',(16.5,2.02066721859313E-15,2.5));
#321=CARTESIAN_POINT('Origin',(0.,0.,2.5));
#322=CARTESIAN_POINT('Origin',(0.,0.,6.5));
#323=CARTESIAN_POINT('Origin',(-25.7479834628928,28.7303410754184,0.));
#324=CARTESIAN_POINT('',(-37.7548296559076,-7.93264960315673,0.));
#325=CARTESIAN_POINT('',(-25.7479834628928,28.7303410754184,0.));
#326=CARTESIAN_POINT('',(-37.7548296559076,-7.93264960315673,0.));
#327=CARTESIAN_POINT('',(-37.7548296559076,-7.93264960315673,2.5));
#328=CARTESIAN_POINT('',(-37.7548296559076,-7.93264960315673,0.));
#329=CARTESIAN_POINT('',(-25.7479834628928,28.7303410754184,2.5));
#330=CARTESIAN_POINT('',(-37.7548296559076,-7.93264960315673,2.5));
#331=CARTESIAN_POINT('',(-25.7479834628928,28.7303410754184,0.));
#332=CARTESIAN_POINT('Origin',(11.9841401359486,36.687394092821,0.));
#333=CARTESIAN_POINT('',(11.9841401359486,36.687394092821,0.));
#334=CARTESIAN_POINT('',(-25.7479834628928,28.7303410754184,0.));
#335=CARTESIAN_POINT('',(11.9841401359486,36.687394092821,2.5));
#336=CARTESIAN_POINT('',(-25.7479834628928,28.7303410754184,2.5));
#337=CARTESIAN_POINT('',(11.9841401359486,36.687394092821,0.));
#338=CARTESIAN_POINT('Origin',(37.7548296559076,7.93264960315675,0.));
#339=CARTESIAN_POINT('',(37.7548296559076,7.93264960315675,0.));
#340=CARTESIAN_POINT('',(11.9841401359486,36.687394092821,0.));
#341=CARTESIAN_POINT('',(37.7548296559076,7.93264960315675,2.5));
#342=CARTESIAN_POINT('',(11.9841401359486,36.687394092821,2.5));
#343=CARTESIAN_POINT('',(37.7548296559076,7.93264960315675,0.));
#344=CARTESIAN_POINT('Origin',(25.7479834628928,-28.7303410754184,0.));
#345=CARTESIAN_POINT('',(25.7479834628928,-28.7303410754184,0.));
#346=CARTESIAN_POINT('',(37.7548296559076,7.93264960315675,0.));
#347=CARTESIAN_POINT('',(25.7479834628928,-28.7303410754184,2.5));
#348=CARTESIAN_POINT('',(37.7548296559076,7.93264960315675,2.5));
#349=CARTESIAN_POINT('',(25.7479834628928,-28.7303410754184,0.));
#350=CARTESIAN_POINT('Origin',(-11.9841401359486,-36.687394092821,0.));
#351=CARTESIAN_POINT('',(-11.9841401359486,-36.687394092821,0.));
#352=CARTESIAN_POINT('',(25.7479834628928,-28.7303410754184,0.));
#353=CARTESIAN_POINT('',(-11.9841401359486,-36.687394092821,2.5));
#354=CARTESIAN_POINT('',(25.7479834628928,-28.7303410754184,2.5));
#355=CARTESIAN_POINT('',(-11.9841401359486,-36.687394092821,0.));
#356=CARTESIAN_POINT('Origin',(-37.7548296559076,-7.93264960315673,0.));
#357=CARTESIAN_POINT('',(-11.9841401359486,-36.687394092821,0.));
#358=CARTESIAN_POINT('',(-11.9841401359486,-36.687394092821,2.5));
#359=CARTESIAN_POINT('Origin',(-1.77635683940025E-14,-4.44089209850063E-15,
2.5));
#360=CARTESIAN_POINT('Origin',(-1.77635683940025E-14,-4.44089209850063E-15,
0.));
#361=UNCERTAINTY_MEASURE_WITH_UNIT(LENGTH_MEASURE(0.01),#365,
'DISTANCE_ACCURACY_VALUE',
'Maximum model space distance between geometric entities at asserted c
onnectivities');
#362=UNCERTAINTY_MEASURE_WITH_UNIT(LENGTH_MEASURE(0.01),#365,
'DISTANCE_ACCURACY_VALUE',
'Maximum model space distance between geometric entities at asserted c
onnectivities');
#363=(
GEOMETRIC_REPRESENTATION_CONTEXT(3)
GLOBAL_UNCERTAINTY_ASSIGNED_CONTEXT((#361))
GLOBAL_UNIT_ASSIGNED_CONTEXT((#365,#367,#368))
REPRESENTATION_CONTEXT('','3D')
);
#364=(
GEOMETRIC_REPRESENTATION_CONTEXT(3)
GLOBAL_UNCERTAINTY_ASSIGNED_CONTEXT((#362))
GLOBAL_UNIT_ASSIGNED_CONTEXT((#365,#367,#368))
REPRESENTATION_CONTEXT('','3D')
);
#365=(
LENGTH_UNIT()
NAMED_UNIT(*)
SI_UNIT(.MILLI.,.METRE.)
);
#366=(
LENGTH_UNIT()
NAMED_UNIT(*)
SI_UNIT($,.METRE.)
);
#367=(
NAMED_UNIT(*)
PLANE_ANGLE_UNIT()
SI_UNIT($,.RADIAN.)
);
#368=(
NAMED_UNIT(*)
SI_UNIT($,.STERADIAN.)
SOLID_ANGLE_UNIT()
);
#369=SHAPE_DEFINITION_REPRESENTATION(#370,#371);
#370=PRODUCT_DEFINITION_SHAPE('',$,#373);
#371=SHAPE_REPRESENTATION('',(#226),#363);
#372=PRODUCT_DEFINITION_CONTEXT('part definition',#377,'design');
#373=PRODUCT_DEFINITION('2026-05-21-00-01-04-472','twisted top',#374,#372);
#374=PRODUCT_DEFINITION_FORMATION('',$,#379);
#375=PRODUCT_RELATED_PRODUCT_CATEGORY('twisted top','twisted top',(#379));
#376=APPLICATION_PROTOCOL_DEFINITION('international standard',
'automotive_design',2009,#377);
#377=APPLICATION_CONTEXT(
'Core Data for Automotive Mechanical Design Process');
#378=PRODUCT_CONTEXT('part definition',#377,'mechanical');
#379=PRODUCT('2026-05-21-00-01-04-472','twisted top',$,(#378));
#380=PRESENTATION_STYLE_ASSIGNMENT((#381));
#381=SURFACE_STYLE_USAGE(.BOTH.,#382);
#382=SURFACE_SIDE_STYLE('',(#383));
#383=SURFACE_STYLE_FILL_AREA(#384);
#384=FILL_AREA_STYLE('Steel - Satin',(#385));
#385=FILL_AREA_STYLE_COLOUR('Steel - Satin',#386);
#386=COLOUR_RGB('Steel - Satin',0.627450980392157,0.627450980392157,0.627450980392157);
ENDSEC;
END-ISO-10303-21;
